# xmcd
#
# Track frame offsets:
#	150
#	12902
#	23447
#	38127
#	51410
#	67792
#	80117
#	95362
#	108260
#	127907
#	142802
#	157122
#	171135
#	186277
#	200495
#	214560
#	227782
#	242997
#	258597
#	275362
#	289785
#	304797
#	319352
#
# Disc length: 4477 seconds
#
# Revision: 1
# Processed by: cddbd v1.5.2PL0 Copyright (c) Steve Scherf et al.
# Submitted via: EZCDAudioConverter 3.1.5.1
#
DISCID=44117b17
DTITLE=Γιώργος Νταλάρας - Το Μουσικό Κουτί_Άσε με πάλι να σου πω...  CD1
DYEAR=1997
DGENRE=entexno
TTITLE0=Ο Ουρανός Φεύγει Βαρύς
TTITLE1=Το Σακάκι Μου Κι Αν Στάζει
TTITLE2=Έχω Έναν Καφενέ
TTITLE3=Που ΄Ναι Τα Χρόνια
TTITLE4=Κάπου Νυχτώνει
TTITLE5=Έτσι Ειν ' Οι Ανθρώποι
TTITLE6=Μ Έκοψαν Με Χώρισαν Στα Δυο
TTITLE7=Δέκα Παλικάρια
TTITLE8=Μάνα Δεν Φυτέψαμε
TTITLE9=Αχ Χελιδόνι Μου
TTITLE10=Ένας Κόμπος Η Χαρά Μου
TTITLE11=Χάντρα Στο Κομπολόι Σου
TTITLE12=Πάνε Να Πεις
TTITLE13=Κάποιον Άλλον Φίλησες
TTITLE14=Η Φαντασία
TTITLE15=Βασανάκι-Βασανάκι
TTITLE16=Ελισσώ
TTITLE17=Ο Λιόντας
TTITLE18=Ήλιε Μου Σε Παρακαλώ
TTITLE19=Γιορτή Ζειμπέκηδων
TTITLE20=Η Σμύρνη
TTITLE21=Μες ' Του Βοσπόρου Τα Στενά
TTITLE22=Αχ Ο Μπαγλαμάς
EXTD=
EXTT0=
EXTT1=
EXTT2=
EXTT3=
EXTT4=
EXTT5=
EXTT6=
EXTT7=
EXTT8=
EXTT9=
EXTT10=
EXTT11=
EXTT12=
EXTT13=
EXTT14=
EXTT15=
EXTT16=
EXTT17=
EXTT18=
EXTT19=
EXTT20=
EXTT21=
EXTT22=
PLAYORDER=
